<?xml version="1.0" encoding="utf-8"?>
<!-- Generator: Adobe Illustrator 16.0.0, SVG Export Plug-In . SVG Version: 6.00 Build 0)  -->
<!DOCTYPE svg PUBLIC "-//W3C//DTD SVG 1.1//EN" "http://www.w3.org/Graphics/SVG/1.1/DTD/svg11.dtd">
<svg version="1.1" id="Layer_1" xmlns="http://www.w3.org/2000/svg" xmlns:xlink="http://www.w3.org/1999/xlink" x="0px" y="0px"
	 width="38px" height="19px" viewBox="-0.5 -0.7 38 19" enable-background="new -0.5 -0.7 38 19" xml:space="preserve">
<g>
	<g>
		<path fill="#F58423" d="M8.668,17.938l4.94-4.935c0.146-0.148,0.146-0.395,0-0.54L9.723,8.571c-0.153-0.147-0.394-0.147-0.54,0
			L0.35,17.398c-0.24,0.246-0.071,0.651,0.27,0.651h7.778C8.501,18.05,8.598,18.01,8.668,17.938z"/>
		<path fill="#F58423" d="M0.359,16.28L12.443,4.188c0.146-0.146,0.146-0.387,0-0.54L8.556-0.238c-0.146-0.146-0.393-0.146-0.54,0
			L-0.19,7.958c-0.071,0.071-0.112,0.167-0.112,0.27v7.775C-0.298,16.35,0.114,16.523,0.359,16.28z"/>
		<path fill="#F58423" d="M-0.301-0.064v6.11c0,0.335,0.412,0.51,0.652,0.27L6.46,0.207C6.707-0.038,6.532-0.45,6.191-0.45H0.079
			C-0.134-0.45-0.301-0.277-0.301-0.064z"/>
	</g>
	<path fill="#253746" d="M18.608,9.522v0.176c0,0.157,0.094,0.25,0.258,0.25h1.171v3.409c0,0.163,0.084,0.257,0.254,0.257h0.268
		c0.173,0,0.266-0.094,0.266-0.257V9.948h1.166c0.166,0,0.25-0.093,0.25-0.25V9.522c0-0.16-0.084-0.258-0.25-0.258H18.87
		C18.702,9.264,18.608,9.362,18.608,9.522 M17.602,12.46c0,0.293-0.243,0.489-0.648,0.489c-0.423,0-0.738-0.219-0.88-0.309
		c-0.15-0.094-0.256-0.077-0.356,0.049l-0.131,0.201c-0.123,0.157-0.06,0.266,0.035,0.356c0.216,0.158,0.717,0.438,1.334,0.438
		c0.912,0,1.437-0.581,1.437-1.287c0-1.376-2.021-1.177-2.021-1.983c0-0.292,0.256-0.493,0.657-0.493
		c0.338,0,0.575,0.137,0.752,0.242c0.129,0.068,0.262,0.086,0.352-0.092l0.109-0.196c0.073-0.137,0.049-0.25-0.076-0.353
		c-0.188-0.136-0.607-0.327-1.123-0.327c-0.826,0-1.462,0.5-1.462,1.261C15.58,11.799,17.602,11.634,17.602,12.46 M18.032,7.126
		c0,0.365-0.229,0.63-0.63,0.63h-0.845V6.502h0.845C17.799,6.5,18.032,6.765,18.032,7.126 M17.861,5.302
		c0,0.316-0.19,0.556-0.534,0.556h-0.771V4.763h0.752C17.681,4.771,17.861,4.995,17.861,5.302 M18.14,6.147V6.138
		c0.327-0.177,0.528-0.522,0.528-0.932c0-0.717-0.566-1.118-1.352-1.118h-1.295c-0.163,0-0.245,0.09-0.245,0.256v3.829
		c0,0.174,0.082,0.262,0.245,0.262h1.318c0.803,0,1.492-0.393,1.492-1.264C18.845,6.733,18.611,6.29,18.14,6.147 M21.522,5.436
		c0,0.422-0.261,0.689-0.687,0.689h-0.711V4.771h0.593c0.225,0,0.364,0.021,0.468,0.073C21.414,4.94,21.522,5.159,21.522,5.436
		 M22.455,8.124l-0.717-1.312c-0.082-0.154-0.143-0.224-0.143-0.224V6.576c0.459-0.184,0.72-0.671,0.72-1.188
		c0-0.583-0.274-1.002-0.726-1.186c-0.182-0.076-0.396-0.114-0.824-0.114h-1.167c-0.17,0-0.25,0.09-0.25,0.256v3.829
		c0,0.174,0.08,0.262,0.25,0.262h0.272c0.168,0,0.25-0.087,0.25-0.262V6.808h0.769l0.761,1.447c0.069,0.118,0.155,0.171,0.297,0.171
		h0.328C22.483,8.428,22.559,8.303,22.455,8.124 M24.998,9.264h-2.09c-0.168,0-0.252,0.088-0.252,0.258v3.835
		c0,0.163,0.084,0.257,0.252,0.257h2.19c0.159,0,0.256-0.094,0.256-0.257v-0.175c0-0.169-0.095-0.25-0.256-0.25h-1.668v-1.176h1.216
		c0.168,0,0.258-0.081,0.258-0.256v-0.174c0-0.158-0.087-0.251-0.258-0.251h-1.216V9.945h1.565c0.172,0,0.258-0.093,0.258-0.252
		V9.518C25.252,9.362,25.168,9.264,24.998,9.264 M23.84,8.176V4.346c0-0.164-0.092-0.256-0.25-0.256h-0.284
		c-0.169,0-0.25,0.09-0.25,0.256v3.829c0,0.174,0.081,0.262,0.25,0.262h0.284C23.748,8.428,23.84,8.346,23.84,8.176 M27.814,4.52
		V4.346c0-0.164-0.083-0.256-0.25-0.256h-3.109c-0.176,0-0.269,0.09-0.269,0.256V4.52c0,0.164,0.093,0.251,0.269,0.251h1.162v3.403
		c0,0.174,0.092,0.262,0.252,0.262h0.277c0.174,0,0.255-0.087,0.255-0.262V4.771h1.177C27.731,4.771,27.814,4.683,27.814,4.52
		 M28.158,9.264h-2.09c-0.17,0-0.253,0.088-0.253,0.258v3.835c0,0.163,0.083,0.257,0.253,0.257h2.18c0.17,0,0.268-0.094,0.268-0.257
		v-0.175c0-0.169-0.096-0.25-0.268-0.25h-1.656v-1.176h1.216c0.168,0,0.256-0.081,0.256-0.256v-0.174
		c0-0.158-0.084-0.251-0.256-0.251h-1.216V9.945h1.566c0.158,0,0.256-0.093,0.256-0.252V9.518
		C28.414,9.362,28.317,9.264,28.158,9.264 M28.955,8.176V4.346c0-0.164-0.084-0.256-0.252-0.256H28.42
		c-0.157,0-0.25,0.09-0.25,0.256v3.829c0,0.174,0.093,0.262,0.25,0.262h0.283C28.871,8.428,28.955,8.346,28.955,8.176 M29.565,9.264
		h-0.284c-0.154,0-0.248,0.088-0.248,0.258v3.835c0,0.163,0.094,0.257,0.248,0.257h2.155c0.174,0,0.256-0.094,0.256-0.257v-0.175
		c0-0.169-0.082-0.25-0.256-0.25h-1.619v-3.41C29.82,9.362,29.74,9.264,29.565,9.264 M30.363,5.231c0-0.292,0.256-0.487,0.668-0.487
		c0.332,0,0.573,0.137,0.752,0.243c0.123,0.063,0.256,0.09,0.34-0.088l0.109-0.207c0.073-0.131,0.059-0.245-0.076-0.346
		c-0.184-0.131-0.609-0.327-1.119-0.327c-0.824,0-1.465,0.493-1.465,1.26c0,1.352,2.03,1.183,2.03,2.009
		c0,0.292-0.247,0.493-0.659,0.493c-0.418,0-0.732-0.219-0.876-0.314c-0.147-0.086-0.255-0.081-0.354,0.055l-0.137,0.196
		C29.459,7.881,29.52,7.988,29.61,8.07c0.216,0.163,0.782,0.443,1.397,0.443c0.918,0,1.371-0.586,1.371-1.281
		C32.396,5.84,30.363,6.05,30.363,5.231 M36.502,8.176V4.346c0-0.164-0.082-0.256-0.25-0.256h-0.276
		c-0.166,0-0.257,0.09-0.257,0.256V5.93h-1.987V4.346c0-0.164-0.093-0.256-0.251-0.256h-0.283c-0.17,0-0.25,0.09-0.25,0.256v3.829
		c0,0.174,0.08,0.262,0.25,0.262h0.283c0.158,0,0.251-0.087,0.251-0.262V6.612h1.983v1.563c0,0.174,0.093,0.262,0.257,0.262h0.276
		C36.42,8.428,36.502,8.346,36.502,8.176"/>
</g>
</svg>
